<?xml version="1.0" encoding="utf-8"?>
<!-- Generator: Adobe Illustrator 16.0.0, SVG Export Plug-In . SVG Version: 6.00 Build 0)  -->
<!DOCTYPE svg PUBLIC "-//W3C//DTD SVG 1.1//EN" "http://www.w3.org/Graphics/SVG/1.1/DTD/svg11.dtd">
<svg version="1.1" xmlns="http://www.w3.org/2000/svg" xmlns:xlink="http://www.w3.org/1999/xlink" x="0px" y="0px" width="411px"
	 height="402px" viewBox="0 0 411 402" enable-background="new 0 0 411 402" xml:space="preserve">
<g id="cola">
	<path fill="#2D2E82" d="M202.091,183.908l-11.729-4.686l-0.312-0.041c-4.664-0.605-9.686-0.912-14.925-0.912
		c-55.255,0-125.928,33.241-146.271,43.43c-19.624,9.827-20.238,11.55-19.665,13.975c0.165,0.698,0.849,2.324,3.622,2.324
		c1.207,0,2.703-0.262,3.796-0.452c0.287-0.05,0.533-0.094,0.717-0.12c0.604-0.088,1.156-0.332,3.994-1.616
		c9.003-4.072,36.401-16.467,59.228-16.467c15.576,0,26.009,5.822,31.006,17.306c17.269,39.682-31.771,93.409-39.361,99.658
		c-7.327,6.032-6.398,8.622-6.094,9.473c0.453,1.262,1.627,2.046,3.064,2.046c0.945,0,2.031-0.33,3.319-1.009l0.156-0.09
		c49.183-30.642,81.75-72.2,100.41-101.668c20.222-31.934,28.96-57.032,29.046-57.281l0.155-0.451L202.091,183.908z M168.74,242.512
		c-17.176,27.098-46.302,64.583-89.506,93.953c6.142-6.344,17.086-19.191,26.081-34.708c7.536-12.998,12.221-25.337,14.011-36.697
		c32.906-17.958,64.396-61.812,65.733-63.688l-4.072-2.902c-0.311,0.437-30.119,41.961-60.968,60.433
		c0.579-8.805-0.705-16.943-3.885-24.25c-1.689-3.882-3.902-7.194-6.598-9.97c30.657-20.555,70.288-26.843,70.695-26.905
		l-0.759-4.941c-1.729,0.265-42.116,6.659-73.85,28.457c-6.356-4.609-14.728-6.95-25.079-6.95c-17.034,0-36.216,6.463-49.182,11.691
		c20.445-10.22,89.845-42.765,143.762-42.765c4.908,0,9.606,0.279,13.97,0.831l7.872,3.145
		C195.072,192.36,186.31,214.793,168.74,242.512z"/>
</g>
<g id="pico">
	<g>
		<path fill="#2D2E82" d="M389.75,65.753l-31.537-36.248l45.365-8.669L389.75,65.753z M367.693,32.784l19.924,22.901l8.736-28.378
			L367.693,32.784z"/>
	</g>
</g>
<g id="ala_1">
	<g>
		<path fill="#2D2E82" d="M274.782,394.356l0.501-4.011c0.028-0.227,0.747-5.727,5.427-20.766c2.348-7.546,5.633-16.865,8.81-25.878
			c3.111-8.827,6.81-19.319,8.299-24.752c-2.453,0.958-4.663,1.442-6.599,1.442c-4.025,0-6.192-2.01-7.301-3.696
			c-2.9-4.411-2.242-12.578,1.761-21.848c1.769-4.097,3.708-7.499,5.642-10.308c-0.761,0.144-1.476,0.216-2.142,0.216
			c-3.947,0.001-6.468-2.531-6.745-6.771c-0.297-4.553,2.835-10.265,9.334-17.056c-3.674,0.139-6.221-1.715-7.236-5.149
			c-0.6-2.03-2.247-7.605,10.467-24.216c-3.569,0.396-6.674-1.044-8.917-4.095c-4.745-6.453-0.13-17.303,6.781-27.678
			c-4.761,1.329-9.103,0.168-12.561-3.396c-12.146-12.514,12.308-45.53,15.136-49.254l0.271-0.302
			c1.813-1.72,44.73-42.11,71.202-42.11c0.962,0,1.906,0.053,2.807,0.158l1.246,0.145l0.628,1.085
			c0.346,0.597,8.527,14.939,13.237,41.966c4.321,24.798,6.355,65.43-8.494,118.178c-14.883,52.866-40.568,84.469-59.495,101.672
			c-20.616,18.737-37.536,24.828-38.247,25.079L274.782,394.356z M300.665,312.419c0.889,0,1.727,0.435,2.242,1.163
			c1.412,1.996,0.859,4.742-8.673,31.782c-3.161,8.97-6.43,18.244-8.751,25.702c-2.262,7.271-3.572,12.246-4.316,15.404
			c6.213-2.938,18.58-9.713,32.522-22.43c18.369-16.754,43.312-47.553,57.834-99.134c14.552-51.692,12.617-91.436,8.432-115.673
			c-3.812-22.068-10.127-35.637-12.09-39.482c-0.313-0.014-0.631-0.021-0.953-0.021c-23.782,0-64.839,38.002-67.617,40.602
			c-9.659,12.777-22.291,35.486-15.404,42.581c1.576,1.624,3.288,2.413,5.234,2.413c3.392,0,7.596-2.356,12.162-6.814
			c3.367-4.111,5.878-6.8,5.984-6.913l3.868,3.149c-0.103,0.145-2.521,3.556-6.155,7.141c-12.805,15.681-18.364,27.87-14.873,32.619
			c1.063,1.446,2.253,2.12,3.745,2.12c2.36-0.001,5.506-1.627,9.103-4.705c4.76-5.419,8.543-9.209,8.703-9.369l3.778,3.254
			c-0.161,0.218-3.967,5.339-8.952,9.674c-17.826,20.353-17.644,27.25-17.161,28.882c0.348,1.175,0.877,1.572,2.098,1.572
			c1.441-0.001,4.869-0.682,11.663-5.232c4.536-3.664,8.021-6.085,8.168-6.187l3.062,3.944c-0.15,0.13-3.71,3.204-8.258,6.269
			c-11.974,9.699-18.939,18.268-18.635,22.929c0.137,2.099,0.9,2.132,1.754,2.098c2.197,0,5.967-1.567,10.359-4.303
			c2.456-2.001,4.152-2.812,4.34-2.9l2.556,4.266c-0.068,0.051-1.664,1.25-3.967,2.701c-3.392,2.82-8.218,8.096-12.197,17.311
			c-3.184,7.373-4.057,14.253-2.173,17.118c0.407,0.619,1.174,1.443,3.122,1.443c1.418,0,3.964-0.454,8.042-2.613
			C299.714,312.54,300.186,312.419,300.665,312.419z"/>
	</g>
</g>
<g id="ala_2">
	<g>
		<path fill="#2D2E82" d="M250.893,124.211h-0.003c-9.351-0.001-24.514-0.75-45.068-2.229c-30.704-2.209-35.296-6.794-35.738-10.988
			c-0.462-4.37,5.323-8.283,11.911-11.287c-5.157,0.111-11.692,0.278-19.664,0.53c-0.558,0.018-1.078,0.026-1.57,0.026
			c-3.828,0-7.834-0.428-8.525-3.599c-0.341-1.563-0.084-3.471,4.697-6.769c-4.116,0.512-8.997,0.98-14.77,1.353
			c-1.276,0.083-2.472,0.124-3.554,0.124c-3.959,0-9.351-0.463-10.454-4.471c-0.43-1.56-1.613-5.866,13.708-16.352
			c-7.039,0.251-17.163,0.231-29.919-0.062c-12.407-0.286-18.352-2.431-19.276-6.956c-1.068-5.231,6.646-11.298,14.878-16.16
			c-5.021,0.448-11.322,0.776-19.02,0.776c-3.099,0-6.331-0.055-9.606-0.162c-10.087-0.331-14.451-1.925-15.063-5.503
			c-0.581-3.397,3.566-6.753,8.916-9.605c-14.197-1.236-40.289-3.39-49.771-3.39c-0.141,0-14.069-0.166-14.079-6.086
			c-0.005-2.947,2.021-6.03,26.292-8.475c21.209-2.137,54.779-3.294,99.779-3.438c1.113-0.003,2.196-0.005,3.296-0.005
			c152.144,0,174.945,34.238,175.842,35.696l8.286,13.429l-58.696,58.696c0.297,0.644,0.278,1.242,0.222,1.601
			C263.525,123.562,260.963,124.211,250.893,124.211z M196.876,94.488l0.696,4.901c-0.062,0.018-6.209,1.811-12.164,4.349
			c-9.966,4.248-10.355,6.708-10.354,6.73c0.005,0.043,0.808,4.345,31.126,6.527c20.436,1.47,35.478,2.215,44.709,2.216h0.003
			c2.723,0,4.647-0.066,6.004-0.154l59.188-59.188L309.873,49.8c-0.038-0.058-5.681-8.384-29.578-16.628
			c-22.07-7.614-64.621-16.689-142.006-16.689c-1.094,0-2.172,0.002-3.28,0.005c-91.217,0.293-113.971,4.708-119.636,6.843
			c1.867,0.601,4.854,1.157,7.628,1.157c13.46,0,57.847,4.084,59.729,4.258l10.536,0.973l-9.857,3.846
			c-6.642,2.591-12.965,6.123-14.38,7.961c0.852,0.425,3.339,1.243,10.054,1.463c3.221,0.105,6.397,0.159,9.442,0.159
			c22.919,0,33.145-3.021,33.245-3.052l1.764,4.667c-0.071,0.033-7.209,3.284-14.043,7.374
			c-12.375,7.405-11.931,10.365-11.925,10.394c0.005,0.026,0.918,2.645,14.492,2.957c6.796,0.156,12.88,0.236,18.084,0.236
			c13.912,0,18.981-0.557,20.819-0.939c0.508-0.3,0.793-0.464,0.793-0.464l1.656-0.952l1.354,1.348
			c0.663,0.661,0.918,1.636,0.667,2.546c-0.395,1.428-1.741,1.966-2.551,2.198c-13.476,8.065-19.654,14.137-19.89,16.045
			c0.305,0.213,1.568,0.865,5.616,0.865c0.975,0,2.062-0.038,3.231-0.113c16.562-1.068,25.422-2.903,29.964-4.272
			c3.003-1.371,5.143-2.267,5.233-2.305l2.731,4.075c-0.438,0.438-1.913,1.591-6.185,2.915c-8.952,4.104-13.467,6.904-15.381,8.474
			c0.854,0.095,2.206,0.15,3.969,0.095C185.689,94.497,196.767,94.488,196.876,94.488z"/>
	</g>
</g>
<g id="cuerpo">
	<path fill="#9D6EAC" d="M-1928.683,249.901"/>
	<path fill="#FD86C4" d="M296.453,58.411c8.634-11.688,48.256-61.078,87.687-19.398c33.31,35.209-12.432,69.045-29.598,79.391
		S319.251,220.144,178,202C197,76.5,291.839,64.657,296.453,58.411z"/>
	<g>
		<defs>
			<path id="SVGID_1_" d="M296.453,58.411c8.634-11.688,48.256-61.078,87.687-19.398c33.31,35.209-12.432,69.045-29.598,79.391
				S319.251,220.144,178,202C197,76.5,291.839,64.657,296.453,58.411z"/>
		</defs>
		<clipPath id="SVGID_2_">
			<use xlink:href="#SVGID_1_"  overflow="visible"/>
		</clipPath>
		<path clip-path="url(#SVGID_2_)" fill="#E270C4" d="M291,58.411c0,0-26,59.009-10,63.299S355.5,132,355.5,132l-91.25,91.25
			c0,0-99.803,7.634-101.75,6.467s7-105.717,7-105.717L252,49.5L291,58.411z"/>
		<path clip-path="url(#SVGID_2_)" fill="#C266C4" d="M172.169,172.667c0,0,69.256,19.73,113.478-0.625
			c44.222-20.354,73.593-36.473,76.374-38.059s1.464,32.121,1.464,32.121l-69.152,81.938l-106.854-31.257
			C187.479,216.786,162.9,185.727,172.169,172.667z"/>
	</g>
</g>
</svg>
